<svg width="417" height="490" viewBox="0 0 417 490" fill="none" xmlns="http://www.w3.org/2000/svg">
<path d="M207.958 99.2002C208.058 99.2002 208.158 99.2002 208.158 99.2002C248.558 98.8002 242.658 44.8002 242.658 44.8002C241.058 8.70019 210.958 9.00019 207.958 9.10019C204.958 9.00019 174.858 8.70019 173.158 44.7002C173.158 44.7002 167.258 98.7002 207.758 99.1002C207.758 99.2002 207.858 99.2002 207.958 99.2002Z" fill="#EABC04"/>
<path d="M207.958 166.3L234.058 130.3C234.058 130.3 252.458 137.7 267.458 148.8C271.358 151.7 273.158 153.4 276.658 156.9C284.958 165.2 281.458 213.3 276.658 230.9C271.858 248.5 257.758 273.8 257.758 273.8C254.958 280.2 253.158 287.1 252.458 294L234.458 470.5C233.858 476.1 229.158 480.4 223.558 480.4H207.958H192.358C186.758 480.4 181.958 476.1 181.458 470.5L163.458 294C162.758 287 160.958 280.2 158.158 273.8C158.158 273.8 144.058 248.6 139.258 230.9C134.458 213.3 130.958 165.2 139.258 156.9C142.758 153.4 144.558 151.7 148.458 148.8C163.458 137.8 181.858 130.3 181.858 130.3L207.958 166.3Z" fill="#EABC04"/>
<path d="M4.95815 248.8C9.45815 265.2 21.4581 287.3 23.2581 290.7C25.4581 295.8 26.8581 301.1 27.3581 306.6L44.2581 472.2C45.2581 482.1 53.5581 489.6 63.5581 489.6H92.7581C102.758 489.6 111.058 482.1 112.058 472.2L128.958 306.6C129.558 301 130.958 295.5 133.258 290.4C135.258 285.8 133.158 280.5 128.658 278.5C124.058 276.5 118.758 278.6 116.758 283.1C113.758 290 111.758 297.3 111.058 304.8L94.1581 470.4C94.0581 471 93.5581 471.5 92.9581 471.5H63.7581C63.1581 471.5 62.5581 471 62.5581 470.4L45.4581 304.7C44.6581 297.2 42.7581 289.9 39.7581 283C39.6581 282.7 39.5581 282.5 39.3581 282.2C39.2581 282 26.6581 259.3 22.4581 244C17.8581 226.9 16.5581 189.7 20.3581 183.1C23.3581 180.1 24.6581 178.9 27.7581 176.6C35.6581 170.8 44.7581 166.1 50.6581 163.3L70.8581 191.1C72.5581 193.4 75.2581 194.8 78.1581 194.8C81.0581 194.8 83.7581 193.4 85.4581 191.1L109.958 157.4C112.858 153.4 111.958 147.7 107.958 144.7C103.958 141.8 98.2581 142.7 95.2581 146.7L78.0581 170.3L61.0581 146.8C58.6581 143.4 54.1581 142.2 50.3581 143.7C49.6581 144 31.8581 151.2 17.0581 162.1C12.8581 165.2 10.8581 167.1 7.35814 170.6C-5.44186 183.4 1.65815 236.6 4.95815 248.8Z" fill="#EABC04"/>
<path d="M77.3582 131.9C77.5582 131.9 77.7582 131.9 77.9582 131.9C78.0582 131.9 78.2582 131.9 78.3582 131.9C78.5582 131.9 78.7582 131.9 79.0582 131.9C90.6582 131.6 100.458 127.4 107.458 119.5C122.358 102.7 120.258 74.7004 119.858 71.2004C118.358 40.3004 96.8582 29.4004 78.9582 29.4004C78.6582 29.4004 78.3582 29.4004 78.1582 29.4004C77.9582 29.4004 77.6582 29.4004 77.3582 29.4004C59.4582 29.4004 38.0582 40.4004 36.4582 71.2004C36.1582 74.7004 33.9582 102.7 48.8582 119.5C55.9582 127.4 65.7582 131.7 77.3582 131.9ZM54.5582 72.8004C54.5582 72.6004 54.5582 72.4004 54.5582 72.2004C55.5582 50.6004 69.2582 47.4004 77.3582 47.4004H77.7582C77.9582 47.4004 78.2582 47.4004 78.4582 47.4004H78.8582C86.9582 47.4004 100.658 50.6004 101.658 72.2004C101.658 72.4004 101.658 72.6004 101.658 72.7004C102.358 79.1004 102.158 97.8004 93.6582 107.4C89.9582 111.6 84.8582 113.7 78.1582 113.7C78.0582 113.7 78.0582 113.7 77.9582 113.7C71.2582 113.6 66.1582 111.6 62.4582 107.4C54.0582 97.9004 53.9582 79.2004 54.5582 72.8004Z" fill="#EABC04"/>
<path d="M287.358 278.4C282.758 280.4 280.658 285.8 282.758 290.3C285.058 295.5 286.458 300.9 287.058 306.5L303.958 472.1C304.958 482 313.258 489.5 323.258 489.5H352.458C362.458 489.5 370.758 482 371.758 472.1L388.658 306.5C389.258 301 390.558 295.7 392.758 290.6C394.558 287.3 406.658 265.2 411.058 248.7C414.358 236.5 421.558 183.3 408.758 170.5C405.258 167 403.258 165.1 399.058 162C384.258 151.1 366.558 143.9 365.758 143.6C361.858 142 357.458 143.3 355.058 146.7L337.858 170.3L320.558 146.8C317.658 142.7 311.958 141.9 307.858 144.8C303.858 147.7 302.958 153.4 305.858 157.5L330.358 191.2C332.058 193.5 334.758 194.9 337.658 194.9C340.558 194.9 343.258 193.5 344.958 191.2L365.158 163.4C371.058 166.2 380.158 170.9 388.058 176.7C391.058 178.9 392.358 180.2 395.458 183.2C399.258 189.8 397.958 227 393.358 244.1C389.158 259.4 376.558 282.1 376.458 282.3C376.358 282.5 376.158 282.8 376.058 283.1C373.058 290 371.058 297.3 370.358 304.8L353.458 470.4C353.358 471 352.858 471.5 352.258 471.5H323.058C322.458 471.5 321.858 471 321.858 470.4L304.958 304.8C304.158 297.3 302.258 290 299.258 283.1C297.258 278.4 291.958 276.4 287.358 278.4Z" fill="#EABC04"/>
<path d="M336.858 131.9C337.058 131.9 337.258 131.9 337.558 131.9C337.658 131.9 337.858 131.9 337.958 131.9C338.158 131.9 338.358 131.9 338.558 131.9C350.158 131.7 359.958 127.4 367.058 119.5C381.958 102.7 379.858 74.7004 379.458 71.2004C377.958 40.3004 356.558 29.4004 338.558 29.4004C338.258 29.4004 337.958 29.4004 337.758 29.4004C337.558 29.4004 337.258 29.4004 336.958 29.4004C319.058 29.4004 297.658 40.4004 296.058 71.2004C295.758 74.7004 293.558 102.7 308.458 119.5C315.458 127.4 325.258 131.6 336.858 131.9ZM314.058 72.8004C314.058 72.6004 314.058 72.4004 314.058 72.2004C315.058 50.6004 328.758 47.4004 336.858 47.4004H337.258C337.458 47.4004 337.758 47.4004 337.958 47.4004H338.358C346.458 47.4004 360.158 50.6004 361.158 72.2004C361.158 72.4004 361.158 72.6004 361.158 72.7004C361.858 79.1004 361.658 97.8004 353.158 107.4C349.458 111.6 344.358 113.6 337.658 113.7C337.558 113.7 337.558 113.7 337.458 113.7C330.758 113.6 325.658 111.6 321.958 107.4C313.558 97.9004 313.458 79.2004 314.058 72.8004Z" fill="#EABC04"/>
<path d="M132.858 150.5C119.358 164 126.958 220.3 130.558 233.3C135.358 250.8 148.158 274.4 150.058 277.8C152.458 283.3 153.958 289 154.558 294.9L172.558 471.4C173.558 481.7 182.158 489.4 192.558 489.4H223.658C233.958 489.4 242.558 481.6 243.658 471.4L261.658 294.9C262.258 289 263.758 283.2 266.158 277.8C268.058 274.3 280.858 250.8 285.658 233.3C289.158 220.3 296.858 164 283.358 150.5C279.658 146.8 277.558 144.8 273.158 141.5C257.458 129.9 238.558 122.3 237.758 121.9C233.858 120.3 229.458 121.6 227.058 125L207.958 150.9L189.158 125C186.758 121.6 182.258 120.4 178.458 121.9C177.658 122.2 158.858 129.9 143.058 141.5C138.658 144.8 136.458 146.8 132.858 150.5ZM145.858 163.1C149.158 159.8 150.558 158.5 153.858 156.1C162.458 149.7 172.458 144.6 178.858 141.6L200.658 171.6C202.358 173.9 205.058 175.3 207.958 175.3C210.858 175.3 213.558 173.9 215.258 171.6L237.058 141.6C243.358 144.6 253.358 149.7 262.058 156.1C265.358 158.5 266.758 159.8 270.058 163.1C274.258 169.9 272.958 210 267.858 228.5C263.358 244.9 249.958 269.1 249.758 269.3C249.658 269.5 249.458 269.8 249.358 270.1C246.158 277.4 244.058 285.1 243.258 293.1L225.258 469.6C225.158 470.6 224.358 471.3 223.358 471.3H192.258C191.258 471.3 190.458 470.6 190.358 469.6L172.358 293.1C171.558 285.2 169.558 277.4 166.258 270.1C166.158 269.8 166.058 269.6 165.858 269.3C165.758 269.1 152.258 244.8 147.758 228.4C142.958 210 141.658 169.9 145.858 163.1Z" fill="#EABC04"/>
<path d="M207.058 108.2C207.258 108.2 207.558 108.2 207.758 108.2C207.858 108.2 208.158 108.2 208.258 108.2C208.458 108.2 208.658 108.2 208.858 108.2C221.258 108 231.258 103.6 238.758 95.1C254.558 77.4 252.158 47.6 251.858 44C250.258 11.5 227.758 0 208.858 0C208.558 0 208.258 0 207.958 0C207.758 0 207.458 0 207.058 0C188.258 0 165.658 11.5 164.058 44C163.758 47.6 161.358 77.3 177.158 95C184.658 103.5 194.758 107.9 207.058 108.2ZM182.158 45.7C182.158 45.5 182.158 45.3 182.158 45.1C183.258 20.7 199.958 18.1 207.058 18.1H207.558C207.758 18.1 208.058 18.1 208.258 18.1H208.758C215.858 18.1 232.558 20.7 233.658 45.1C233.658 45.3 233.658 45.5 233.658 45.6C234.358 52.5 234.258 72.7 225.058 83C220.958 87.6 215.358 89.9 208.058 89.9C207.958 89.9 207.858 89.9 207.758 89.9C200.458 89.8 194.858 87.6 190.758 83C181.558 72.8 181.458 52.6 182.158 45.7Z" fill="#EABC04"/>
</svg>
