<svg width="496" height="496" viewBox="0 0 496 496" fill="none" xmlns="http://www.w3.org/2000/svg">
<path d="M496 256V191.809C496 174.008 484.543 158.609 467.496 153.496L416 138.047V125.895C430.488 115.762 440 98.9844 440 80.0078V56C440 25.1211 414.879 0 384 0C353.121 0 328 25.1211 328 56V80C328 98.9844 337.512 115.762 352 125.887V138.039L306.617 151.656C289.586 136.426 267.887 128 244.848 128C221.902 128 200.91 136.406 184.688 150.258L144 138.047V125.895C158.488 115.762 168 98.9844 168 80.0078V56C168 25.1211 142.879 0 112 0C81.1211 0 56 25.1211 56 56V80C56 98.9844 65.5117 115.762 80 125.887V138.039L28.5039 153.488C11.457 158.609 0 174.008 0 191.809V256H16V191.809C16 181.129 22.8711 171.887 33.1055 168.824L84.6172 153.367C89.2734 159.414 98.2812 168 112 168C125.719 168 134.727 159.414 139.383 153.367L172.191 163.207C161.777 176.305 154.84 192.246 152.734 209.688C142.52 198.832 128.055 192 112 192C81.1211 192 56 217.121 56 248V272C56 290.984 65.5117 307.762 80 317.887V330.039L28.5039 345.488C11.457 350.609 0 366.008 0 383.809V456H96C100.406 456 104 459.594 104 464V496H392V464C392 459.594 395.594 456 400 456H496V383.809C496 366.008 484.543 350.609 467.496 345.496L416 330.047V317.895C430.488 307.762 440 290.984 440 272.008V248.008C440 217.129 414.879 192.008 384 192.008C368.336 192.008 354.176 198.488 344 208.887V201.305C344 185.504 335.414 171.281 322.016 163.762L356.617 153.375C361.273 159.414 370.281 168 384 168C397.719 168 406.727 159.414 411.383 153.367L462.902 168.824C473.129 171.887 480 181.129 480 191.809V256H496ZM112 16C134.055 16 152 33.9453 152 56H115.312C110.23 56 105.246 53.9375 101.656 50.3438L96 44.6875L90.3438 50.3438C86.7539 53.9375 81.7695 56 76.6875 56H72C72 33.9453 89.9453 16 112 16ZM72 80V72H76.6875C83.6562 72 90.3125 70 96 66.2656C101.688 70 108.344 72 115.312 72H152V80C152 102.055 134.055 120 112 120C89.9453 120 72 102.055 72 80ZM112 152C103.496 152 97.9844 144.855 96 141.801V133.648C101.07 135.16 106.441 136 112 136C117.559 136 122.93 135.16 128 133.641V141.793C126.016 144.863 120.504 152 112 152ZM331.902 292.414C335.977 302.762 343.008 311.609 352 317.895V330.047L300.512 345.496C298.816 346 297.168 346.656 295.559 347.383L288 345.641V329.879C296.551 323.008 303.289 313.984 307.426 303.641C316.641 302.832 325.281 298.91 331.902 292.414V292.414ZM248 344C256.488 344 264.586 342.305 272 339.289V348L248 366L224 348V339.289C231.414 342.305 239.512 344 248 344V344ZM214.176 360.633L233.68 375.266L213.617 387.305L208.543 361.938L214.176 360.633ZM239.16 424H256.84L263.062 480H232.938L239.16 424ZM258.23 408H237.762L233.168 394.223L248 385.328L262.824 394.223L258.23 408ZM262.32 375.266L281.824 360.633L287.457 361.93L282.383 387.297L262.32 375.266ZM321.762 280.145C318.992 283.184 315.473 285.312 311.656 286.609C311.879 284.434 312 282.23 312 280V241.719C320.609 244.984 327.016 252.559 327.879 261.609C328.535 268.496 326.367 275.07 321.762 280.145V280.145ZM296 280C296 306.473 274.473 328 248 328C221.527 328 200 306.473 200 280V240H227.16C244.594 240 261.559 235.648 276.727 227.336L283.055 240H296V280ZM184.344 286.609C180.527 285.312 177.008 283.184 174.238 280.145C169.633 275.078 167.465 268.496 168.121 261.617C168.984 252.566 175.391 244.984 184 241.727V280C184 282.23 184.121 284.434 184.344 286.609ZM188.574 303.641C192.703 313.984 199.441 323.008 208 329.879V345.641L200.441 347.383C198.824 346.656 197.184 346.008 195.496 345.496L144 330.047V317.895C152.984 311.609 160.023 302.762 164.098 292.414C170.719 298.91 179.359 302.832 188.574 303.641ZM112 208C134.055 208 152 225.945 152 248H147.312C142.23 248 137.246 245.938 133.656 242.344L128 236.688L122.344 242.344C118.754 245.938 113.77 248 108.688 248H72C72 225.945 89.9453 208 112 208ZM72 272V264H108.688C115.656 264 122.312 262 128 258.266C133.688 262 140.344 264 147.312 264H152V272C152 294.055 134.055 312 112 312C89.9453 312 72 294.055 72 272ZM112 328C117.559 328 122.93 327.16 128 325.641V333.793C126.016 336.863 120.504 344 112 344C103.496 344 97.9844 336.855 96 333.801V325.648C101.07 327.16 106.441 328 112 328V328ZM96 440H64V384H48V440H16V383.809C16 373.129 22.8711 363.887 33.1055 360.824L84.6172 345.367C89.2734 351.414 98.2812 360 112 360C125.719 360 134.727 351.414 139.383 345.367L169.719 354.473L147.406 359.617C121.848 365.52 104 387.961 104 414.184V424H120V414.184C120 395.449 132.754 379.426 151.008 375.207L192.945 365.527L202.375 412.695L219.113 402.656L223.848 416.863L216.84 480H176V416H160V480H120V464C120 450.77 109.23 440 96 440V440ZM462.895 360.824C473.129 363.887 480 373.129 480 383.809V440H448V384H432V440H400C386.77 440 376 450.77 376 464V480H336V416H320V480H279.16L272.145 416.863L276.879 402.656L293.617 412.695L303.047 365.527L344.992 375.207C363.246 379.426 376 395.449 376 414.184V424H392V414.184C392 387.961 374.152 365.52 348.594 359.617L326.281 354.473L356.617 345.367C361.273 351.414 370.281 360 384 360C397.719 360 406.727 351.414 411.383 345.367L462.895 360.824ZM400 333.801C398.016 336.863 392.504 344 384 344C375.48 344 369.961 336.832 368 333.801V325.641C373.07 327.16 378.441 328 384 328C389.559 328 394.93 327.16 400 325.641V333.801ZM384 312C361.945 312 344 294.055 344 272V264H348.688C355.656 264 362.312 262 368 258.266C373.688 262 380.344 264 387.312 264H424V272C424 294.055 406.055 312 384 312ZM384 208C406.055 208 424 225.945 424 248H387.312C382.23 248 377.246 245.938 373.656 242.344L368 236.688L362.344 242.344C358.754 245.938 353.77 248 348.688 248H344C344 225.945 361.945 208 384 208ZM328 232.68C320.922 227.32 312.129 224 302.625 224H292.945L283.105 204.32L275.566 209.344C261.176 218.938 244.441 224 227.16 224H193.375C183.871 224 175.078 227.32 168 232.68V220.848C168 178.48 202.48 144 244.848 144C265.375 144 284.68 151.992 299.191 166.504L307.68 174.992L309.473 175.594C320.551 179.289 328 189.617 328 201.297V232.68ZM384 16C406.055 16 424 33.9453 424 56H419.312C414.23 56 409.246 53.9375 405.656 50.3438L400 44.6875L394.344 50.3438C390.754 53.9375 385.77 56 380.688 56H344C344 33.9453 361.945 16 384 16ZM344 80V72H380.688C387.656 72 394.312 70 400 66.2656C405.688 70 412.344 72 419.312 72H424V80C424 102.055 406.055 120 384 120C361.945 120 344 102.055 344 80ZM384 152C375.48 152 369.961 144.832 368 141.801V133.641C373.07 135.16 378.441 136 384 136C389.559 136 394.93 135.16 400 133.641V141.793C398.016 144.863 392.504 152 384 152Z" fill="#EABC04"/>
<path d="M184 0H200V16H184V0Z" fill="#EABC04"/>
<path d="M184 32H200V120H184V32Z" fill="#EABC04"/>
<path d="M296 0H312V16H296V0Z" fill="#EABC04"/>
<path d="M296 32H312V120H296V32Z" fill="#EABC04"/>
<path d="M216 32H232V88H216V32Z" fill="#EABC04"/>
<path d="M216 104H232V120H216V104Z" fill="#EABC04"/>
<path d="M264 32H280V88H264V32Z" fill="#EABC04"/>
<path d="M264 104H280V120H264V104Z" fill="#EABC04"/>
</svg>
