<svg width="512" height="411" viewBox="0 0 512 411" fill="none" xmlns="http://www.w3.org/2000/svg">
<path d="M372.29 0H28.831C12.933 0 0 12.933 0 28.83V234.886C0 250.783 12.933 263.717 28.831 263.717H51.102V340.427C51.102 345.311 54.044 349.716 58.558 351.586C60.052 352.206 61.622 352.506 63.178 352.506C66.322 352.506 69.41 351.278 71.721 348.968L156.972 263.718H174.076C180.747 263.718 186.154 258.311 186.154 251.64C186.154 244.968 180.745 239.561 174.076 239.561C174.076 239.561 151.386 239.577 151.149 239.601C148.337 239.792 145.577 240.95 143.427 243.099L75.258 311.268C75.258 311.268 75.237 250.876 75.198 250.563C74.653 244.397 69.481 239.561 63.174 239.561H28.831C26.253 239.561 24.157 237.464 24.157 234.887V28.83C24.157 26.252 26.254 24.156 28.831 24.156H372.29C374.868 24.156 376.964 26.253 376.964 28.83V107.885C376.964 114.556 382.373 119.963 389.042 119.963C395.711 119.963 401.12 114.556 401.12 107.885V28.83C401.12 12.933 388.187 0 372.29 0Z" fill="white"/>
<path d="M483.169 147.734H242.754C226.857 147.734 213.923 160.667 213.923 176.565V317.135C213.923 333.032 226.856 345.966 242.754 345.966H393.268L454.248 406.946C456.559 409.257 459.648 410.484 462.791 410.484C464.347 410.484 465.917 410.183 467.411 409.564C471.923 407.694 474.867 403.291 474.867 398.405V345.965H483.168C499.065 345.965 511.999 333.032 511.999 317.134V176.564C512 160.667 499.067 147.734 483.169 147.734ZM487.844 317.135C487.844 319.712 485.747 321.809 483.17 321.809H462.794C456.438 321.809 451.24 326.721 450.763 332.956C450.732 333.22 450.712 369.246 450.712 369.246L406.858 325.391C406.812 325.345 406.764 325.302 406.718 325.256C406.546 325.088 406.383 324.942 406.229 324.811C404.103 322.947 401.326 321.808 398.278 321.808H242.754C240.176 321.808 238.08 319.711 238.08 317.134V176.564C238.08 173.986 240.177 171.89 242.754 171.89H483.17C485.747 171.89 487.844 173.987 487.844 176.564V317.135V317.135Z" fill="white"/>
<path d="M362.964 234.772C356.297 234.772 350.886 240.183 350.886 246.85C350.886 253.517 356.297 258.928 362.964 258.928C369.632 258.928 375.042 253.517 375.042 246.85C375.042 240.183 369.631 234.772 362.964 234.772Z" fill="white"/>
<path d="M310.472 79.853H90.65C83.98 79.853 78.572 85.26 78.572 91.931C78.572 98.602 83.981 104.009 90.65 104.009H310.472C317.142 104.009 322.55 98.602 322.55 91.931C322.55 85.26 317.142 79.853 310.472 79.853Z" fill="white"/>
<path d="M174.075 159.707H90.65C83.98 159.707 78.572 165.114 78.572 171.785C78.572 178.456 83.981 183.863 90.65 183.863H174.075C180.746 183.863 186.153 178.456 186.153 171.785C186.153 165.114 180.745 159.707 174.075 159.707Z" fill="white"/>
<path d="M306.837 234.772C300.171 234.772 294.759 240.183 294.759 246.85C294.759 253.517 300.171 258.928 306.837 258.928C313.505 258.928 318.915 253.517 318.915 246.85C318.915 240.183 313.505 234.772 306.837 234.772Z" fill="white"/>
<path d="M419.079 234.772C412.412 234.772 407.001 240.183 407.001 246.85C407.001 253.517 412.412 258.928 419.079 258.928C425.747 258.928 431.157 253.517 431.157 246.85C431.157 240.183 425.746 234.772 419.079 234.772Z" fill="white"/>
</svg>
