<svg width="512" height="470" viewBox="0 0 512 470" fill="none" xmlns="http://www.w3.org/2000/svg">
<path d="M234.661 469.317C105.278 469.317 0 364.043 0 234.661C0 105.278 105.278 0 234.661 0C279.651 0 323.423 12.8199 361.247 37.0965C368.672 41.8776 370.848 51.7757 366.067 59.2208C361.27 66.6659 351.391 68.8182 343.946 64.041C311.307 43.069 273.507 31.999 234.661 31.999C122.918 31.999 31.999 122.918 31.999 234.661C31.999 346.399 122.918 437.318 234.661 437.318C346.399 437.318 437.318 346.399 437.318 234.661C437.318 227.981 436.998 221.368 436.381 214.864C435.529 206.052 441.971 198.244 450.759 197.392C459.591 196.58 467.376 202.982 468.231 211.771C468.954 219.302 469.317 226.938 469.317 234.661C469.317 364.043 364.043 469.317 234.661 469.317V469.317Z" fill="white"/>
<path d="M261.324 287.991C257.23 287.991 253.132 286.433 250.019 283.3L154.022 187.303C147.773 181.049 147.773 170.917 154.022 164.667C160.272 158.417 170.405 158.417 176.654 164.667L261.347 249.359L484.676 26.0266C490.93 19.7768 501.062 19.7768 507.312 26.0266C513.562 32.2764 513.562 42.4089 507.312 48.6587L272.651 283.319C269.515 286.433 265.421 287.991 261.324 287.991V287.991Z" fill="white"/>
</svg>
