<svg width="512" height="512" viewBox="0 0 512 512" fill="none" xmlns="http://www.w3.org/2000/svg">
<path d="M326.733 53.4018C324.999 52.7628 323.229 52.1358 321.471 51.5418C316.134 49.7338 310.347 52.5988 308.54 57.9338C306.736 63.2688 309.598 69.0578 314.933 70.8638C316.515 71.3988 318.109 71.9628 319.67 72.5398C320.836 72.9698 322.028 73.1738 323.201 73.1738C327.35 73.1738 331.25 70.6228 332.769 66.5028C334.72 61.2178 332.018 55.3528 326.733 53.4018Z" fill="#EABC04"/>
<path d="M279.711 10.277C273.591 3.745 264.949 0 256 0C247.051 0 238.408 3.746 232.289 10.277C226.169 16.808 222.994 25.676 223.577 34.608L225.211 59.654C225.211 59.655 225.211 59.655 225.211 59.655C225.858 69.558 231.086 78.616 239.197 83.886C244.301 87.203 250.152 88.86 256.002 88.86C261.852 88.86 267.703 87.202 272.805 83.887C280.915 78.617 286.145 69.559 286.791 59.655L288.425 34.608C289.008 25.677 285.831 16.809 279.711 10.277ZM268.072 33.281L266.438 58.326C266.209 61.841 264.435 65.001 261.694 66.782C258.234 69.029 253.768 69.027 250.31 66.782C247.569 65.001 245.796 61.839 245.565 58.326L243.931 33.281C243.712 29.908 244.863 26.691 247.175 24.224C249.486 21.758 252.62 20.399 256 20.399C259.38 20.399 262.514 21.758 264.826 24.224C267.14 26.691 268.291 29.908 268.072 33.281Z" fill="#EABC04"/>
<path d="M336.669 148.759L333.836 133.116C330.11 112.552 313.818 96.1405 293.295 92.2755C290.196 91.6925 287.029 91.3965 283.878 91.3965H275.344C272.639 91.3965 270.045 92.4715 268.132 94.3835C264.892 97.6235 260.584 99.4085 256 99.4085C251.416 99.4085 247.108 97.6235 243.868 94.3835C241.955 92.4715 239.361 91.3965 236.656 91.3965H228.122C224.972 91.3965 221.804 91.6925 218.705 92.2755C198.182 96.1385 181.89 112.551 178.164 133.116L175.331 148.759C174.792 151.733 175.601 154.794 177.538 157.114C179.477 159.434 182.344 160.776 185.367 160.776H326.634C329.657 160.776 332.524 159.435 334.461 157.114C336.398 154.794 337.207 151.734 336.669 148.759ZM197.581 140.377L198.237 136.751C200.466 124.449 210.21 114.631 222.482 112.32C224.338 111.97 226.236 111.793 228.124 111.793H232.806C239.395 116.987 247.481 119.806 256.001 119.806C264.52 119.806 272.607 116.988 279.196 111.793H283.878C285.765 111.793 287.664 111.97 289.52 112.32C301.793 114.631 311.535 124.449 313.765 136.751L314.422 140.377H197.581Z" fill="#EABC04"/>
<path d="M279.711 360.612C273.591 354.08 264.949 350.335 256 350.335C247.051 350.335 238.408 354.081 232.289 360.612C226.169 367.144 222.994 376.012 223.577 384.943L225.211 409.99C225.858 419.894 231.087 428.952 239.196 434.221C244.302 437.538 250.151 439.195 256.002 439.195C261.851 439.195 267.703 437.537 272.805 434.221C280.914 428.952 286.145 419.893 286.791 409.989L288.425 384.942C289.008 376.012 285.831 367.144 279.711 360.612ZM268.072 383.614L266.438 408.66C266.209 412.174 264.435 415.334 261.693 417.115C258.234 419.362 253.768 419.362 250.31 417.115C247.569 415.334 245.796 412.173 245.565 408.66L243.931 383.615C243.712 380.241 244.863 377.024 247.175 374.558C249.485 372.092 252.62 370.733 256 370.733C259.38 370.733 262.515 372.092 264.826 374.558C267.14 377.024 268.291 380.241 268.072 383.614Z" fill="#EABC04"/>
<path d="M336.668 499.094L333.835 483.451C330.109 462.887 313.817 446.475 293.294 442.61C290.198 442.027 287.03 441.731 283.877 441.731H275.343C272.638 441.731 270.044 442.806 268.131 444.718C261.441 451.409 250.558 451.408 243.868 444.718C241.955 442.806 239.361 441.731 236.656 441.731H228.122C224.974 441.731 221.806 442.027 218.705 442.61C198.182 446.475 181.89 462.887 178.164 483.452L175.331 499.095C174.792 502.069 175.601 505.13 177.538 507.45C179.477 509.77 182.344 511.111 185.367 511.111H326.634C329.657 511.111 332.524 509.77 334.46 507.448C336.397 505.129 337.206 502.069 336.668 499.094ZM197.581 490.713L198.236 487.088C200.466 474.786 210.209 464.968 222.478 462.657C224.336 462.307 226.235 462.13 228.122 462.13H232.81C246.37 472.79 265.633 472.79 279.191 462.13H283.879C285.767 462.13 287.666 462.307 289.521 462.656C301.794 464.967 311.536 474.785 313.766 487.087L314.423 490.713H197.581Z" fill="#EABC04"/>
<path d="M104.546 185.447C98.4255 178.915 89.7835 175.169 80.8335 175.169C71.8835 175.169 63.2395 178.915 57.1205 185.447C51.0015 191.978 47.8265 200.846 48.4095 209.776L50.0435 234.822C50.6895 244.725 55.9175 253.784 64.0285 259.054C69.1335 262.37 74.9845 264.028 80.8345 264.028C86.6845 264.028 92.5365 262.37 97.6385 259.055C105.75 253.785 110.978 244.726 111.623 234.824L113.257 209.777C113.839 200.847 110.664 191.977 104.546 185.447ZM92.9035 208.448L91.2695 233.495C91.0415 237.009 89.2685 240.168 86.5265 241.949C83.0675 244.196 78.6005 244.196 75.1425 241.949C72.4005 240.167 70.6285 237.007 70.3985 233.495L68.7645 208.448C68.5445 205.075 69.6965 201.858 72.0075 199.392C74.3185 196.925 77.4535 195.566 80.8335 195.566C84.2135 195.566 87.3475 196.926 89.6585 199.392C91.9695 201.858 93.1235 205.075 92.9035 208.448Z" fill="#EABC04"/>
<path d="M161.5 323.926L158.667 308.283C154.941 287.719 138.649 271.307 118.126 267.442C115.029 266.859 111.861 266.563 108.708 266.563H100.174C97.4704 266.563 94.8774 267.638 92.9634 269.55C86.2734 276.24 75.3904 276.241 68.7004 269.55C66.7874 267.638 64.1934 266.563 61.4884 266.563H52.9534C49.8054 266.563 46.6364 266.859 43.5374 267.442C23.0144 271.307 6.72244 287.719 2.99644 308.283L0.163443 323.926C-0.375557 326.9 0.433442 329.961 2.37044 332.281C4.30944 334.601 7.17644 335.942 10.1994 335.942H151.466C154.489 335.942 157.356 334.601 159.292 332.281C161.23 329.961 162.039 326.902 161.5 323.926ZM22.4144 315.545L23.0704 311.919C25.3004 299.618 35.0434 289.799 47.3154 287.488C49.1714 287.138 51.0694 286.961 52.9564 286.961H57.6404C64.2294 292.155 72.3164 294.973 80.8354 294.973C89.3544 294.973 97.4414 292.155 104.03 286.961H108.712C110.599 286.961 112.497 287.138 114.353 287.488C126.626 289.799 136.368 299.618 138.598 311.919L139.255 315.545H22.4144Z" fill="#EABC04"/>
<path d="M454.878 185.445C448.758 178.913 440.116 175.168 431.167 175.168C422.217 175.168 413.574 178.914 407.455 185.446C401.336 191.977 398.161 200.846 398.744 209.776L400.378 234.822C401.024 244.725 406.251 253.784 414.362 259.054C419.468 262.371 425.317 264.028 431.168 264.028C437.017 264.028 442.87 262.37 447.972 259.054C456.083 253.784 461.312 244.725 461.957 234.822L463.591 209.775C464.174 200.844 460.998 191.976 454.878 185.445ZM443.238 208.447L441.604 233.494C441.376 237.007 439.602 240.167 436.86 241.948C433.404 244.194 428.936 244.195 425.476 241.948C422.735 240.167 420.963 237.007 420.733 233.494L419.099 208.447C418.879 205.074 420.032 201.857 422.342 199.391C424.652 196.925 427.787 195.566 431.167 195.566C434.548 195.566 437.682 196.925 439.992 199.391C442.306 201.857 443.457 205.074 443.238 208.447Z" fill="#EABC04"/>
<path d="M511.835 323.926L509.002 308.283C505.276 287.719 488.984 271.307 468.461 267.442C465.362 266.859 462.195 266.563 459.044 266.563H450.509C447.805 266.563 445.212 267.638 443.298 269.55C436.608 276.24 425.725 276.241 419.035 269.55C417.122 267.638 414.528 266.563 411.823 266.563H403.289C400.138 266.563 396.97 266.859 393.873 267.442C373.349 271.307 357.057 287.719 353.331 308.283L350.498 323.926C349.959 326.9 350.768 329.961 352.705 332.281C354.644 334.601 357.511 335.942 360.534 335.942H501.801C504.824 335.942 507.691 334.601 509.627 332.281C511.565 329.961 512.373 326.902 511.835 323.926ZM372.748 315.545L373.405 311.919C375.634 299.618 385.377 289.799 397.651 287.488C399.506 287.138 401.403 286.961 403.291 286.961H407.973C414.562 292.155 422.649 294.973 431.168 294.973C439.687 294.973 447.774 292.155 454.363 286.961H459.046C460.932 286.961 462.831 287.138 464.687 287.488C476.96 289.799 486.702 299.618 488.932 311.919L489.589 315.545H372.748Z" fill="#EABC04"/>
<path d="M203.026 65.7857C201.221 60.4507 195.433 57.5887 190.095 59.3927C149.698 73.0597 113.715 99.7707 88.7745 134.603C85.4965 139.183 86.5505 145.555 91.1305 148.834C92.9295 150.122 95.0045 150.741 97.0595 150.741C100.238 150.741 103.371 149.259 105.361 146.478C127.835 115.09 160.249 91.0247 196.633 78.7147C201.97 76.9097 204.832 71.1207 203.026 65.7857Z" fill="#EABC04"/>
<path d="M423.536 134.602C405.979 110.08 382.811 89.3474 356.533 74.6454C351.62 71.8964 345.403 73.6504 342.653 78.5664C339.902 83.4824 341.659 89.6964 346.574 92.4474C370.25 105.695 391.128 124.379 406.951 146.477C408.942 149.259 412.075 150.74 415.254 150.74C417.308 150.74 419.382 150.121 421.18 148.832C425.762 145.553 426.815 139.181 423.536 134.602Z" fill="#EABC04"/>
<path d="M196.633 421.762C160.249 409.454 127.835 385.388 105.361 353.999C102.081 349.42 95.7105 348.365 91.1315 351.644C86.5505 354.924 85.4965 361.295 88.7755 365.875C113.715 400.708 149.699 427.418 190.095 441.085C191.179 441.451 192.281 441.626 193.365 441.626C197.618 441.626 201.587 438.944 203.026 434.692C204.831 429.357 201.969 423.568 196.633 421.762Z" fill="#EABC04"/>
<path d="M421.181 351.647C416.601 348.368 410.229 349.424 406.951 354.002C384.477 385.391 352.063 409.456 315.679 421.764C310.343 423.569 307.481 429.358 309.286 434.694C310.724 438.946 314.694 441.627 318.947 441.627C320.03 441.627 321.133 441.453 322.216 441.087C363.198 427.222 398.234 401.215 423.537 365.877C426.815 361.297 425.762 354.926 421.181 351.647Z" fill="#EABC04"/>
</svg>
