<svg width="512" height="485" viewBox="0 0 512 485" fill="none" xmlns="http://www.w3.org/2000/svg">
<path d="M136.965 308.234C141.746 305.476 143.383 299.355 140.625 294.574C137.863 289.797 131.746 288.156 126.965 290.914C122.183 293.676 120.543 299.797 123.305 304.574C126.062 309.355 132.183 310.996 136.965 308.234V308.234Z" fill="white"/>
<path d="M95.9842 377.254L146.344 464.484C157.211 483.328 181.656 490.304 200.988 479.129C220.117 468.074 226.691 443.633 215.625 424.488L185.625 372.519L211.605 357.519C216.387 354.754 218.027 348.64 215.265 343.859L202.262 321.336C203.812 321.035 214.008 319.035 393.801 283.765C416.027 282.558 429.344 258.25 418.117 238.816L384.883 181.254L406.121 149.086C408.207 145.922 408.332 141.855 406.437 138.574L386.437 103.933C384.543 100.652 380.945 98.7302 377.176 98.9529L338.703 101.261L301.808 37.3552C296.465 28.0974 286.89 22.4919 276.203 22.3591C276.074 22.3552 275.949 22.3552 275.82 22.3552C265.492 22.3552 256.117 27.4958 250.562 36.1873L119.93 202.601L35.0037 251.633C1.6014 270.91 -9.96891 313.761 9.38265 347.254C27.0623 377.879 64.3358 389.926 95.9842 377.254V377.254ZM198.308 434.492C203.832 444.047 200.562 456.273 190.98 461.808C181.367 467.367 169.125 463.953 163.664 454.488L113.664 367.875L148.305 347.875C206.172 448.117 197.379 432.886 198.308 434.492V434.492ZM175.625 355.195L165.625 337.875L182.945 327.875L192.945 345.195L175.625 355.195ZM372.207 119.285L386.027 143.222L373.703 161.886L349.883 120.625L372.207 119.285ZM267.289 47.1521C269.973 42.7615 274.23 42.3083 275.957 42.3552C277.664 42.3748 281.918 42.906 284.484 47.3513L400.797 248.816C404.586 255.375 399.98 263.621 392.383 263.808C391.019 263.84 390.39 264.086 386.898 264.738L263.863 51.6326C266.445 48.3123 266.777 47.9919 267.289 47.1521V47.1521ZM250.555 68.5857L366.152 268.808L191.691 303.027L138.644 211.148L250.555 68.5857ZM26.703 337.254C22.3123 329.656 19.992 321.031 19.992 312.304C19.992 294.469 29.578 277.859 45.0037 268.953L122.945 223.953L172.945 310.554L95.0037 355.558C71.1248 369.34 40.4881 361.129 26.703 337.254V337.254Z" fill="white"/>
<path d="M105.984 314.574C103.223 309.793 97.1054 308.152 92.3241 310.914L75.0038 320.914C70.2304 323.672 64.1015 322.027 61.3436 317.254C58.5819 312.472 52.4647 310.832 47.6835 313.593C42.9022 316.355 41.2616 322.472 44.0233 327.254C52.2538 341.511 70.6132 346.539 85.0038 338.234L102.324 328.234C107.105 325.472 108.746 319.359 105.984 314.574V314.574Z" fill="white"/>
<path d="M497.136 43.7458L441.414 74.7537C436.59 77.4412 434.851 83.531 437.539 88.3552C440.218 93.1755 446.304 94.9216 451.14 92.2302L506.859 61.2224C511.687 58.5349 513.422 52.4451 510.734 47.6208C508.05 42.7927 501.961 41.0583 497.136 43.7458V43.7458Z" fill="white"/>
<path d="M491.293 147.316L452.656 136.965C447.32 135.535 441.836 138.699 440.406 144.035C438.976 149.371 442.144 154.851 447.48 156.281L486.121 166.633C491.488 168.074 496.945 164.859 498.367 159.562C499.797 154.226 496.629 148.742 491.293 147.316Z" fill="white"/>
<path d="M394.199 7.41377L383.836 46.0544C382.406 51.3903 385.57 56.8708 390.906 58.3044C396.238 59.7302 401.722 56.5739 403.156 51.2341L413.515 12.5935C414.945 7.25752 411.781 1.77314 406.445 0.343454C401.113 -1.08623 395.629 2.07783 394.199 7.41377V7.41377Z" fill="white"/>
</svg>
