<svg width="4822" height="4661" viewBox="0 0 4822 4661" fill="none" xmlns="http://www.w3.org/2000/svg">
<path d="M4793.51 3164.21L4565.29 2921.59C4528.61 2882.6 4469.41 2882.87 4433.04 2922.17C4396.66 2961.48 4396.91 3024.94 4433.58 3063.93L4661.79 3306.55C4680.02 3325.94 4703.83 3335.62 4727.64 3335.62C4751.69 3335.62 4775.75 3325.73 4794.03 3305.97C4830.42 3266.66 4830.18 3203.2 4793.51 3164.21Z" fill="black"/>
<path d="M4200.51 2673.36L4200.35 2673.53C4163.83 2712.67 4163.91 2776.06 4200.43 2815.2C4218.66 2834.75 4242.59 2844.53 4266.51 2844.53C4290.49 2844.53 4314.47 2834.71 4332.75 2815.12C4369.27 2775.98 4369.27 2712.51 4332.75 2673.36C4296.24 2634.21 4237.04 2634.21 4200.51 2673.36Z" fill="black"/>
<path d="M2078.77 576.686H2897.65L2520.99 1072.16L2078.77 576.686Z" fill="#FFCC00"/>
<path d="M3185.92 352.205L3123.92 280.801C3023.94 165.645 2883.77 100.234 2737 100.234H2002.68V231.676C2002.68 428.318 2151.86 587.469 2335.32 586.537L2950.2 585.234L3185.92 352.205Z" fill="#FFCC00"/>
<path d="M2354.2 3837.42C2508.55 3967.28 2702.93 4029.9 2898.5 4012.74L2928.16 4010.13L3441.1 4559.94L4693.51 3402.31L3983.19 2644.27L2354.2 3837.42Z" fill="#FFCC00"/>
<path d="M1078.06 2707.82L93.5234 3763.1L1682 4560.51L2520.03 3658.94C2864.51 3645.55 3191.5 3492.87 3435.25 3231.61L4342.42 2259.25C4443.52 2150.88 4443.52 1975.2 4342.42 1866.83C4241.33 1758.46 4077.42 1758.46 3976.31 1866.83L3861.4 1990L4101.94 1732.17C4203.04 1623.8 4203.04 1448.12 4101.94 1339.75C4000.85 1231.38 3836.94 1231.38 3735.83 1339.75L3495.28 1597.58L3827.35 1241.65C3928.45 1133.28 3928.45 957.597 3827.35 849.224C3726.26 740.862 3562.35 740.862 3461.24 849.224L3129.17 1205.16L3552.78 751.114C3653.87 642.752 3653.87 467.065 3552.78 358.693C3451.68 250.33 3287.77 250.33 3186.66 358.693L2521.01 1072.18" fill="#FCC69D"/>
<path d="M1444.18 2315.38L1191.49 2044.54C1090.4 1936.18 926.487 1936.18 825.381 2044.54C724.283 2152.91 724.283 2328.59 825.381 2436.96L1078.06 2707.81C1179.16 2816.17 1343.07 2816.17 1444.18 2707.81C1545.27 2599.45 1545.27 2423.75 1444.18 2315.38Z" fill="#FFCC00"/>
<path d="M1810.28 1922.97L1431.97 1517.47C1330.87 1409.11 1166.97 1409.11 1065.86 1517.47C964.761 1625.84 964.761 1801.52 1065.86 1909.9L1444.17 2315.4C1545.27 2423.76 1709.18 2423.76 1810.28 2315.4C1911.38 2207.02 1911.38 2031.34 1810.28 1922.97Z" fill="#FFCC00"/>
<path d="M2176.4 1530.54L1706.56 1026.94C1605.46 918.579 1441.56 918.579 1340.45 1026.94C1239.35 1135.3 1239.35 1310.99 1340.45 1419.36L1810.29 1922.96C1911.38 2031.32 2075.29 2031.32 2176.4 1922.96C2277.5 1814.61 2277.5 1638.9 2176.4 1530.54Z" fill="#FFCC00"/>
<path d="M2542.5 1138.13L1981.13 536.417C1880.04 428.055 1716.13 428.055 1615.02 536.417C1513.92 644.78 1513.92 820.466 1615.02 928.839L2176.39 1530.55C2277.49 1638.91 2441.4 1638.91 2542.5 1530.55C2643.6 1422.18 2643.6 1246.49 2542.5 1138.13Z" fill="#FFCC00"/>
<path d="M2994.28 3939.24C2974.86 3918.44 2947.88 3907.81 2920.51 3910.21L2890.87 3912.82C2754.02 3924.84 2618.75 3892.72 2500.64 3821.77L2560.74 3757.12C2916.08 3733.64 3248.85 3573.11 3501.36 3302.46L4408.53 2330.11C4545.92 2182.83 4545.93 1943.2 4408.52 1795.92C4360.07 1743.99 4300.9 1710.46 4238.57 1695.15C4259.94 1645.91 4271.25 1591.86 4271.25 1535.93C4271.25 1435.04 4234.59 1340.18 4168.04 1268.85C4115.84 1212.89 4050.12 1176.75 3978.8 1163.73C4018.95 1032.59 3990.57 882.402 3893.45 778.319C3840.06 721.096 3773.65 686.221 3704.34 673.474C3715.95 635.703 3722.07 595.807 3722.07 554.89C3722.07 453.993 3685.41 359.14 3618.86 287.807C3552.3 216.474 3463.81 177.18 3369.69 177.18C3309.92 177.18 3252.44 193.074 3201.39 222.918L3192.36 212.526C3075.1 77.456 2909.12 0 2737 0H2002.68C1951.04 0 1909.17 44.8862 1909.17 100.235V231.677C1909.17 284.279 1917.47 335.489 1933.34 383.642C1891.04 364.812 1845.27 354.921 1798.09 354.921C1703.96 354.921 1615.47 394.215 1548.91 465.548C1451.75 569.691 1423.39 719.994 1463.64 851.175C1394.27 863.892 1327.77 898.787 1274.33 956.06C1207.78 1027.4 1171.12 1122.26 1171.12 1223.14C1171.12 1263.99 1177.22 1303.82 1188.79 1341.51C1117.54 1354.56 1051.89 1390.68 999.74 1446.59C892.434 1561.61 868.939 1732.98 929.253 1872.66C865.386 1888.31 806.726 1922.78 759.249 1973.66C621.857 2120.93 621.857 2360.56 759.249 2507.84L945.811 2707.8L27.3897 3692.23C-9.12989 3731.37 -9.12989 3794.84 27.3897 3833.99C45.6495 3853.55 69.5845 3863.35 93.5101 3863.35C117.436 3863.35 141.371 3853.56 159.631 3833.99L1086.94 2840.04C1139.44 2872.15 1199.02 2889.32 1261.11 2889.32C1355.23 2889.32 1443.72 2850.03 1510.28 2778.69C1582.59 2701.19 1616.8 2598.1 1612.99 2496.36C1617.73 2496.57 1622.47 2496.72 1627.21 2496.72C1717.43 2496.71 1807.7 2459.89 1876.39 2386.28C1942.94 2314.93 1979.6 2220.08 1979.6 2119.19C1979.6 2114.09 1979.44 2109.02 1979.25 2103.95C1983.94 2104.15 1988.62 2104.31 1993.31 2104.31C2083.55 2104.31 2173.8 2067.49 2242.49 1993.86C2309.04 1922.52 2345.7 1827.67 2345.7 1726.78C2345.7 1721.68 2345.54 1716.61 2345.35 1711.54C2350.04 1711.74 2354.72 1711.9 2359.42 1711.9C2449.66 1711.9 2539.9 1675.08 2608.59 1601.45C2737.69 1463.08 2745.46 1243.18 2631.97 1094.95L3252.72 429.581C3283.96 396.089 3325.47 377.66 3369.65 377.66C3413.83 377.66 3455.35 396.089 3486.59 429.581C3517.82 463.063 3535.02 507.568 3535.02 554.91C3535.02 602.251 3517.82 646.767 3486.58 680.238L3395.05 778.339L3062.97 1134.28C3026.45 1173.43 3026.45 1236.89 3062.97 1276.05C3081.23 1295.61 3105.17 1305.41 3129.09 1305.41C3153.02 1305.41 3176.95 1295.62 3195.21 1276.05L3527.29 920.103C3591.76 850.994 3696.66 850.984 3761.16 920.093C3825.63 989.211 3825.63 1101.66 3761.16 1170.77L3669.62 1268.88L3429.08 1526.71C3392.56 1565.86 3392.56 1629.32 3429.08 1668.48C3447.34 1688.04 3471.27 1697.84 3495.2 1697.84C3519.12 1697.84 3543.06 1688.05 3561.32 1668.48L3801.86 1410.64C3833.1 1377.15 3874.63 1358.72 3918.79 1358.72C3962.97 1358.72 4004.49 1377.15 4035.73 1410.64C4066.96 1444.13 4084.16 1488.63 4084.16 1535.97C4084.16 1583.31 4066.96 1627.83 4035.72 1661.3L3910.09 1795.96L3795.17 1919.13C3758.65 1958.28 3758.65 2021.74 3795.17 2060.9C3813.43 2080.46 3837.36 2090.26 3861.29 2090.26C3885.22 2090.26 3909.15 2080.47 3927.41 2060.9L4042.41 1937.63C4106.9 1868.64 4211.73 1868.65 4276.19 1937.72C4340.67 2006.83 4340.67 2119.28 4276.19 2188.4L3369.01 3160.76C3141.22 3404.93 2838.47 3546.28 2516.54 3558.81C2492.87 3559.73 2470.4 3570.24 2453.68 3588.24L1615.65 4489.82C1579.2 4529.03 1579.3 4592.5 1615.9 4631.57C1634.14 4651.05 1658.02 4660.8 1681.9 4660.8C1705.88 4660.8 1729.88 4650.97 1748.14 4631.31L2364.53 3968.19C2521.1 4075.85 2705.23 4127.04 2892.46 4113.77L3374.88 4630.87C3393.14 4650.43 3417.07 4660.23 3441 4660.23C3464.92 4660.23 3488.86 4650.44 3507.12 4630.87C3543.64 4591.72 3543.64 4528.26 3507.12 4489.1L2994.28 3939.24ZM2096.18 200.46H2736.98C2857.36 200.46 2973.43 254.626 3055.45 349.088L3059.25 353.468L2500.97 951.871L2244.12 676.56C2273.24 683.225 2303.19 686.762 2333.67 686.752C2334.35 686.752 2335.04 686.752 2335.73 686.752L2592.36 685.46C2644 685.199 2685.68 640.112 2685.44 584.754C2685.19 529.555 2643.37 484.99 2591.93 484.99C2591.78 484.99 2591.63 484.99 2591.48 484.99L2334.85 486.283C2334.46 486.283 2334.09 486.283 2333.7 486.283C2270.46 486.283 2210.99 459.976 2166.15 412.144C2121.03 364 2096.19 299.923 2096.19 231.677L2096.18 200.46ZM1378.04 2636.94C1346.81 2670.43 1305.28 2688.86 1261.12 2688.86C1216.94 2688.86 1175.42 2670.43 1144.19 2636.94L891.509 2366.11C827.034 2297 827.034 2184.54 891.509 2115.44C922.746 2081.94 964.277 2063.51 1008.44 2063.51C1052.61 2063.51 1094.14 2081.94 1125.37 2115.44L1378.05 2386.27C1442.52 2455.37 1442.52 2567.82 1378.04 2636.94ZM1792.6 2119.18C1792.6 2166.52 1775.4 2211.04 1744.16 2244.51C1679.68 2313.62 1574.76 2313.62 1510.29 2244.51L1257.61 1973.67L1131.97 1839C1067.5 1769.89 1067.5 1657.44 1131.97 1588.34C1163.21 1554.84 1204.74 1536.41 1248.9 1536.41C1293.07 1536.41 1334.6 1554.84 1365.82 1588.34L1744.14 1993.83C1744.14 1993.83 1744.14 1993.83 1744.15 1993.83C1775.39 2027.33 1792.6 2071.84 1792.6 2119.18ZM2158.7 1726.76C2158.7 1774.1 2141.5 1818.62 2110.27 1852.09C2045.78 1921.19 1940.87 1921.2 1876.4 1852.09L1406.55 1348.48C1375.31 1315 1358.12 1270.49 1358.12 1223.15C1358.12 1175.81 1375.31 1131.3 1406.56 1097.82C1438.8 1063.27 1481.15 1045.99 1523.49 1045.99C1565.8 1045.99 1608.11 1063.25 1640.34 1097.74L1854.48 1327.28L2110.25 1601.42H2110.26C2141.5 1634.9 2158.7 1679.41 2158.7 1726.76ZM2476.38 1459.67C2411.9 1528.78 2306.99 1528.78 2242.52 1459.67L1772.67 956.06C1772.63 956.01 1772.57 955.959 1772.51 955.899L1681.14 857.959C1616.66 788.841 1616.66 676.39 1681.14 607.282C1713.38 572.718 1755.73 555.441 1798.07 555.441C1840.42 555.441 1882.77 572.718 1915 607.282L2476.36 1208.98C2507.61 1242.46 2524.8 1286.98 2524.8 1334.31C2524.81 1381.67 2507.63 1426.2 2476.38 1459.67Z" fill="black"/>
</svg>
