<svg width="50" height="50" viewBox="0 0 50 50" fill="none" xmlns="http://www.w3.org/2000/svg">
<path d="M24.826 0C11.137 0 0 11.137 0 24.826C0 38.514 11.137 49.652 24.826 49.652C38.514 49.652 49.652 38.514 49.652 24.826C49.652 11.137 38.516 0 24.826 0ZM35.901 19.144C35.912 19.39 35.918 19.638 35.918 19.886C35.918 27.437 30.172 36.141 19.659 36.141C16.432 36.141 13.428 35.198 10.9 33.576C11.347 33.629 11.802 33.656 12.263 33.656C14.941 33.656 17.404 32.742 19.36 31.21C16.86 31.164 14.749 29.512 14.022 27.241C14.37 27.307 14.729 27.344 15.096 27.344C15.617 27.344 16.123 27.276 16.602 27.145C13.988 26.621 12.019 24.312 12.019 21.542C12.019 21.518 12.019 21.493 12.02 21.47C12.79 21.897 13.671 22.155 14.607 22.184C13.075 21.161 12.066 19.411 12.066 17.429C12.066 16.381 12.347 15.399 12.839 14.555C15.656 18.013 19.868 20.287 24.616 20.527C24.518 20.108 24.469 19.673 24.469 19.224C24.469 16.069 27.027 13.51 30.182 13.51C31.826 13.51 33.309 14.204 34.353 15.314C35.656 15.058 36.876 14.584 37.983 13.927C37.553 15.262 36.65 16.381 35.467 17.089C36.624 16.951 37.728 16.645 38.749 16.19C37.987 17.334 37.018 18.341 35.901 19.144Z" fill="#EABC04"/>
</svg>
